<svg width="258" height="62" viewBox="0 0 258 62" fill="none" xmlns="http://www.w3.org/2000/svg">
<g clip-path="url(#clip0_20_11)">
<path d="M129.002 41.6884C132.137 41.6888 135.201 40.7597 137.807 39.0185C140.414 37.2773 142.445 34.8022 143.645 31.9064C144.844 29.0105 145.158 25.8239 144.547 22.7497C143.935 19.6754 142.426 16.8516 140.209 14.6353C137.993 12.4191 135.169 10.9099 132.094 10.2988C129.02 9.68768 125.833 10.002 122.938 11.202C120.042 12.4021 117.567 14.4339 115.826 17.0405C114.086 19.6472 113.157 22.7115 113.158 25.846C113.159 30.0478 114.828 34.0772 117.8 37.048C120.771 40.0189 124.801 41.6881 129.002 41.6884Z" fill="#EE4023"/>
<path d="M128.19 0.00112806L129.803 -0.000701904L129.812 7.884L128.199 7.88583L128.19 0.00112806Z" fill="#EE4023"/>
<path d="M137.351 9.90285L141.204 2.96567L142.615 3.74937L138.762 10.6866L137.351 9.90285Z" fill="#EE4023"/>
<path d="M143.636 15.4029L150.353 11.2755L151.198 12.6508L144.481 16.7782L143.636 15.4029Z" fill="#EE4023"/>
<path d="M115.697 3.41747L117.106 2.62997L120.941 9.49215L119.532 10.2796L115.697 3.41747Z" fill="#EE4023"/>
<path d="M106.82 13.3216L107.646 11.9347L114.373 15.9403L113.547 17.3273L106.82 13.3216Z" fill="#EE4023"/>
<path fill-rule="evenodd" clip-rule="evenodd" d="M63.2762 29.7306C50.4323 38.0214 45.6234 40.3871 45.6234 40.3871V48.5265C62.077 40.7304 72.1659 50.6735 72.1659 50.6735V53.461H79.87V29.8181C79.8822 28.9679 79.6539 28.1316 79.2115 27.4054C78.7692 26.6793 78.1307 26.0928 77.3697 25.7136H91.1783C89.0977 26.2946 87.0882 27.1053 85.1871 28.131C84.5853 28.5288 84.1091 29.0895 83.814 29.7477C83.5188 30.4059 83.4169 31.1345 83.5202 31.8484L92.9372 35.7599C92.9372 35.7599 94.0881 36.0964 94.1296 36.9299C94.1991 37.917 92.9316 38.2233 92.9316 38.2233C92.9316 38.2233 87.5068 38.645 84.7967 40.8661C82.8449 42.4735 83.2992 43.8634 83.2992 43.8634V47.9016C83.2992 48.2449 83.2992 48.5253 83.4787 48.7003C85.629 50.9259 89.7346 51.6068 89.7346 51.6068L93.0594 49.7929C89.5518 49.5248 89.3992 48.7216 89.3465 48.0396C89.3196 47.4933 89.8905 45.7367 97.2357 45.3598C103.812 45.0233 110.28 49.7424 110.28 49.7424V53.4307H117.973V29.9751C117.973 28.6189 117.599 23.174 110.707 23.174L103.999 23.128H67.255V24.2026C72.2568 24.7085 72.1592 28.1007 72.1592 28.1007V44.6396C68.5798 41.7151 64.189 39.9594 59.58 39.6097C62.4945 37.9636 65.2305 36.0197 67.744 33.8092C68.1727 33.4037 68.4494 32.8635 68.528 32.2787C68.6066 31.6938 68.4823 31.0997 68.1759 30.5954C67.0521 28.0868 65.3994 25.8506 63.3311 24.04C60.0545 21.1167 55.8368 23.0192 55.8368 23.0192L51.7447 24.8633C41.2463 18.9776 35.0117 24.4449 35.0117 24.4449V25.6519C18.7723 14.835 7.81178 28.5684 7.81178 28.5684V32.0761L18.8497 32.0481L14.3123 36.3769V42.4601L34.7279 34.8648V45.2757C31.7464 43.4539 28.182 42.8388 24.7624 43.556C21.2973 44.3244 16.0128 46.3604 14.5187 46.4299C7.7198 46.7339 7.26998 41.9374 7.19034 39.4931C7.13201 37.7521 9.1231 38.0113 9.1231 38.0113V35.0162H0.26136C-0.000961585 36.7611 -0.0518072 38.5313 0.109925 40.2884C0.865977 47.6336 5.07474 50.5254 8.71366 51.3207C15.7324 52.8575 20.5469 48.4827 25.2156 48.0677C26.9443 47.9595 28.6768 48.2074 30.3059 48.7959C31.935 49.3844 33.4259 50.301 34.6864 51.489V53.2221H42.3894V27.5241C42.5385 27.0651 42.7995 26.6505 43.1489 26.3176C43.4982 25.9847 43.9249 25.744 44.3906 25.6171C47.721 25.0103 49.1019 25.8908 49.1019 25.8908C48.2639 26.3506 47.4612 26.8718 46.7002 27.4501C45.3351 28.4383 45.841 30.4978 45.9419 32.1535C46.0429 33.8092 48.9538 34.9826 48.9538 34.9826L51.4216 33.7711C49.1613 33.024 50.5175 31.6095 50.5175 31.6095C50.5175 31.6095 59.2446 27.5398 60.7522 26.8881C61.0142 26.7671 61.2831 26.6618 61.5577 26.5729C61.7006 26.5112 61.8545 26.4787 62.0102 26.4772C62.1659 26.4757 62.3204 26.5052 62.4645 26.5642C62.6086 26.6231 62.7396 26.7101 62.8497 26.8203C62.9598 26.9304 63.0468 27.0614 63.1057 27.2055C63.4534 27.9492 63.9885 29.2718 63.2762 29.7306ZM23.6339 33.291C23.6339 33.291 23.054 33.6555 22.7365 33.3123C22.5884 33.1665 22.6827 32.8894 23.0226 32.5641L24.7893 30.9409C24.7893 30.9409 26.3373 29.4939 24.1791 29.3873C22.0208 29.2808 18.7398 29.2976 18.7398 29.2976C18.7398 29.2976 17.719 29.4232 17.6483 28.9611C17.6108 28.8201 17.6239 28.6705 17.6854 28.5383C17.7469 28.4061 17.8529 28.2996 17.9848 28.2375C18.8463 27.6767 31.7901 24.7164 35.3718 29.0867L23.6339 33.291ZM105.98 37.0701C105.98 37.0701 106.58 34.885 102.306 33.0319C101.745 32.7839 97.9547 31.0475 94.2552 29.5309C94.0762 29.4502 93.9274 29.3149 93.8301 29.1443C93.7328 28.9737 93.6921 28.7767 93.7138 28.5816C93.7355 28.3864 93.8184 28.2032 93.9508 28.0581C94.0831 27.9131 94.258 27.8137 94.4504 27.7743C95.5598 27.3738 101.466 25.717 101.466 25.717H106.617C106.617 25.717 110.264 25.7338 110.264 29.3066L110.28 43.5762C107.756 41.3634 104.748 39.7743 101.497 38.9367L105.98 37.0701Z" fill="#231F20"/>
<path fill-rule="evenodd" clip-rule="evenodd" d="M251.628 23.036H137.415V25.9526H145.482C136.802 28.6021 137.696 32.932 137.696 32.932V40.5251C137.907 44.321 142.259 43.8903 142.259 43.8903C144.644 43.5127 146.991 42.9249 149.272 42.1336C150.878 41.6826 152.415 41.0134 153.839 40.1448C157.138 38.6192 155.948 35.9529 155.858 35.7083C155.139 33.9405 152.38 31.6544 152.38 31.6544L149.245 32.6336L149.933 33.3067C151.094 34.1547 148.947 35.3157 148.947 35.3157L143.939 36.8996C141.351 37.5121 142.226 35.6522 142.358 35.3987C143.063 33.8081 146.183 32.3061 147.269 31.7396C155.22 27.532 157.174 31.0026 158.087 31.983C164.073 38.3769 158.339 43.3608 157.088 44.477C152.698 48.5747 146.947 50.9033 140.942 51.0145C133.14 51.1053 131.33 47.343 131.33 47.343L132.055 45.6088L129.25 44.1629L122.833 51.8187C146.66 68.075 163.59 46.9167 163.59 46.9167C165.837 47.6786 167.853 49.0009 169.448 50.7587V53.2265H176.939V29.9628C176.885 26.5179 174.605 25.9503 174.605 25.9503H179.684C182.376 26.9408 182.06 30.0032 182.06 30.0032V53.2355H189.843V29.6633C189.812 26.3093 187.365 25.9503 187.365 25.9503H204.293C202.862 26.9004 201.377 28.0401 197.665 30.8389C193.963 33.955 194.556 37.5368 194.556 37.5368V44.9144C194.698 46.3142 195.379 47.6035 196.456 48.5096C199.726 51.1963 203.477 53.2377 207.509 54.5255C213.305 56.2261 216.277 52.798 216.277 52.798L218.953 49.9185L216.201 48.43C214.236 51.5405 209.309 48.1899 209.309 48.1899C209.309 48.1899 206.216 46.3604 204.895 45.565C201.071 43.1219 201.145 42.0405 201.145 42.0405L201.179 33.614C201.535 31.0767 210.253 25.9503 210.253 25.9503H235.455C236.299 26.2669 237.014 26.853 237.49 27.6176C237.966 28.3823 238.177 29.2827 238.089 30.1793V35.217C234.376 32.3498 231.535 34.0594 231.535 34.0594L226.878 36.3836C226.878 36.3836 228.054 34.7111 229.472 32.7133C230.801 30.8232 228.955 30.2264 224.957 28.3822C219.797 26.0042 216.598 28.4944 216.598 28.4944C214.338 29.7406 212.159 31.1267 210.073 32.6449C206.749 35.0869 207.044 37.456 207.044 37.456V41.1241C208.889 44.2436 213.222 43.2902 213.222 43.2902L214.284 41.1925C211.562 41.031 212.078 39.8105 212.461 39.3472C212.461 39.3472 222.877 32.9937 224.784 32.001C225.068 31.854 225.708 32.0874 225.457 32.6392C224.469 34.7818 220.169 39.8565 219.875 40.589C218.074 45.2229 221.201 46.4591 221.201 46.4591L234.023 40.1246C237.35 38.5306 238.094 40.9491 238.094 40.9491V53.5653H245.569V30.1793C245.626 29.2901 245.405 28.4053 244.936 27.6474C244.468 26.8896 243.775 26.2965 242.954 25.9503H247.986C248.818 26.292 249.522 26.8848 250 27.6459C250.479 28.4071 250.708 29.2986 250.655 30.1961V53.5619H258.002V30.1692C258.002 27.2964 256.564 23.036 251.628 23.036ZM169.443 43.9946C168.506 42.6811 167.283 41.5969 165.867 40.8235C165.867 40.8235 166.947 30.2197 155.501 25.9503H167.149C167.149 25.9503 169.406 26.5179 169.443 29.9886V43.9946Z" fill="#231F20"/>
</g>
<defs>
<clipPath id="clip0_20_11">
<rect width="258" height="61.6957" fill="white"/>
</clipPath>
</defs>
</svg>
